<svg width="200" height="200" viewBox="0 0 200 200" fill="none" xmlns="http://www.w3.org/2000/svg">
<rect width="200" height="200" fill="#E5E5E5"/>
<rect id="bg" width="200" height="200" fill="black"/>
<rect id="s1" x="50.5" y="50.5" width="99" height="99" stroke="white"/>
<rect id="s2" x="55.5" y="55.5" width="89" height="89" stroke="white"/>
<rect id="s3" x="60.5" y="60.5" width="79" height="79" stroke="white"/>
<rect id="s4" x="65.5" y="65.5" width="69" height="69" stroke="white"/>
<rect id="s5" x="70.5" y="70.5" width="59" height="59" stroke="white"/>
<rect id="s6" x="75.5" y="75.5" width="49" height="49" stroke="white"/>
<path id="Hold" d="M94.5469 38H93.416V34.0566H89.1152V38H87.9902V29.4688H89.1152V33.1367H93.416V29.4688H94.5469V38ZM96.0879 34.7715C96.0879 34.1504 96.209 33.5918 96.4512 33.0957C96.6973 32.5996 97.0371 32.2168 97.4707 31.9473C97.9082 31.6777 98.4062 31.543 98.9648 31.543C99.8281 31.543 100.525 31.8418 101.057 32.4395C101.592 33.0371 101.859 33.832 101.859 34.8242V34.9004C101.859 35.5176 101.74 36.0723 101.502 36.5645C101.268 37.0527 100.93 37.4336 100.488 37.707C100.051 37.9805 99.5469 38.1172 98.9766 38.1172C98.1172 38.1172 97.4199 37.8184 96.8848 37.2207C96.3535 36.623 96.0879 35.832 96.0879 34.8477V34.7715ZM97.1777 34.9004C97.1777 35.6035 97.3398 36.168 97.6641 36.5938C97.9922 37.0195 98.4297 37.2324 98.9766 37.2324C99.5273 37.2324 99.9648 37.0176 100.289 36.5879C100.613 36.1543 100.775 35.5488 100.775 34.7715C100.775 34.0762 100.609 33.5137 100.277 33.084C99.9492 32.6504 99.5117 32.4336 98.9648 32.4336C98.4297 32.4336 97.998 32.6465 97.6699 33.0723C97.3418 33.498 97.1777 34.1074 97.1777 34.9004ZM104.396 38H103.312V29H104.396V38ZM105.873 34.7773C105.873 33.8047 106.104 33.0234 106.564 32.4336C107.025 31.8398 107.629 31.543 108.375 31.543C109.117 31.543 109.705 31.7969 110.139 32.3047V29H111.223V38H110.227L110.174 37.3203C109.74 37.8516 109.137 38.1172 108.363 38.1172C107.629 38.1172 107.029 37.8164 106.564 37.2148C106.104 36.6133 105.873 35.8281 105.873 34.8594V34.7773ZM106.957 34.9004C106.957 35.6191 107.105 36.1816 107.402 36.5879C107.699 36.9941 108.109 37.1973 108.633 37.1973C109.32 37.1973 109.822 36.8887 110.139 36.2715V33.3594C109.814 32.7617 109.316 32.4629 108.645 32.4629C108.113 32.4629 107.699 32.668 107.402 33.0781C107.105 33.4883 106.957 34.0957 106.957 34.9004Z" fill="white"/>
<path id="Inhale" d="M7.19727 105H6.07227V96.4688H7.19727V105ZM10.1152 98.6602L10.1504 99.457C10.6348 98.8477 11.2676 98.543 12.0488 98.543C13.3887 98.543 14.0645 99.2988 14.0762 100.811V105H12.9922V100.805C12.9883 100.348 12.8828 100.01 12.6758 99.791C12.4727 99.5723 12.1543 99.4629 11.7207 99.4629C11.3691 99.4629 11.0605 99.5566 10.7949 99.7441C10.5293 99.9316 10.3223 100.178 10.1738 100.482V105H9.08984V98.6602H10.1152ZM16.7949 99.4277C17.2754 98.8379 17.9004 98.543 18.6699 98.543C20.0098 98.543 20.6855 99.2988 20.6973 100.811V105H19.6133V100.805C19.6094 100.348 19.5039 100.01 19.2969 99.791C19.0938 99.5723 18.7754 99.4629 18.3418 99.4629C17.9902 99.4629 17.6816 99.5566 17.416 99.7441C17.1504 99.9316 16.9434 100.178 16.7949 100.482V105H15.7109V96H16.7949V99.4277ZM26.2344 105C26.1719 104.875 26.1211 104.652 26.082 104.332C25.5781 104.855 24.9766 105.117 24.2773 105.117C23.6523 105.117 23.1387 104.941 22.7363 104.59C22.3379 104.234 22.1387 103.785 22.1387 103.242C22.1387 102.582 22.3887 102.07 22.8887 101.707C23.3926 101.34 24.0996 101.156 25.0098 101.156H26.0645V100.658C26.0645 100.279 25.9512 99.9785 25.7246 99.7559C25.498 99.5293 25.1641 99.416 24.7227 99.416C24.3359 99.416 24.0117 99.5137 23.75 99.709C23.4883 99.9043 23.3574 100.141 23.3574 100.418H22.2676C22.2676 100.102 22.3789 99.7969 22.6016 99.5039C22.8281 99.207 23.1328 98.9727 23.5156 98.8008C23.9023 98.6289 24.3262 98.543 24.7871 98.543C25.5176 98.543 26.0898 98.7266 26.5039 99.0938C26.918 99.457 27.1328 99.959 27.1484 100.6V103.518C27.1484 104.1 27.2227 104.562 27.3711 104.906V105H26.2344ZM24.4355 104.174C24.7754 104.174 25.0977 104.086 25.4023 103.91C25.707 103.734 25.9277 103.506 26.0645 103.225V101.924H25.2148C23.8867 101.924 23.2227 102.312 23.2227 103.09C23.2227 103.43 23.3359 103.695 23.5625 103.887C23.7891 104.078 24.0801 104.174 24.4355 104.174ZM30.0254 105H28.9414V96H30.0254V105ZM34.3965 105.117C33.5371 105.117 32.8379 104.836 32.2988 104.273C31.7598 103.707 31.4902 102.951 31.4902 102.006V101.807C31.4902 101.178 31.6094 100.617 31.8477 100.125C32.0898 99.6289 32.4258 99.2422 32.8555 98.9648C33.2891 98.6836 33.7578 98.543 34.2617 98.543C35.0859 98.543 35.7266 98.8145 36.1836 99.3574C36.6406 99.9004 36.8691 100.678 36.8691 101.689V102.141H32.5742C32.5898 102.766 32.7715 103.271 33.1191 103.658C33.4707 104.041 33.916 104.232 34.4551 104.232C34.8379 104.232 35.1621 104.154 35.4277 103.998C35.6934 103.842 35.9258 103.635 36.125 103.377L36.7871 103.893C36.2559 104.709 35.459 105.117 34.3965 105.117ZM34.2617 99.4336C33.8242 99.4336 33.457 99.5938 33.1602 99.9141C32.8633 100.23 32.6797 100.676 32.6094 101.25H35.7852V101.168C35.7539 100.617 35.6055 100.191 35.3398 99.8906C35.0742 99.5859 34.7148 99.4336 34.2617 99.4336Z" fill="white"/>
<path id="Exhale" d="M166.812 101.057H163.115V104.08H167.41V105H161.99V96.4688H167.352V97.3945H163.115V100.137H166.812V101.057ZM170.768 100.975L172.174 98.6602H173.439L171.365 101.795L173.504 105H172.25L170.785 102.627L169.32 105H168.061L170.199 101.795L168.125 98.6602H169.379L170.768 100.975ZM175.678 99.4277C176.158 98.8379 176.783 98.543 177.553 98.543C178.893 98.543 179.568 99.2988 179.58 100.811V105H178.496V100.805C178.492 100.348 178.387 100.01 178.18 99.791C177.977 99.5723 177.658 99.4629 177.225 99.4629C176.873 99.4629 176.564 99.5566 176.299 99.7441C176.033 99.9316 175.826 100.178 175.678 100.482V105H174.594V96H175.678V99.4277ZM185.117 105C185.055 104.875 185.004 104.652 184.965 104.332C184.461 104.855 183.859 105.117 183.16 105.117C182.535 105.117 182.021 104.941 181.619 104.59C181.221 104.234 181.021 103.785 181.021 103.242C181.021 102.582 181.271 102.07 181.771 101.707C182.275 101.34 182.982 101.156 183.893 101.156H184.947V100.658C184.947 100.279 184.834 99.9785 184.607 99.7559C184.381 99.5293 184.047 99.416 183.605 99.416C183.219 99.416 182.895 99.5137 182.633 99.709C182.371 99.9043 182.24 100.141 182.24 100.418H181.15C181.15 100.102 181.262 99.7969 181.484 99.5039C181.711 99.207 182.016 98.9727 182.398 98.8008C182.785 98.6289 183.209 98.543 183.67 98.543C184.4 98.543 184.973 98.7266 185.387 99.0938C185.801 99.457 186.016 99.959 186.031 100.6V103.518C186.031 104.1 186.105 104.562 186.254 104.906V105H185.117ZM183.318 104.174C183.658 104.174 183.98 104.086 184.285 103.91C184.59 103.734 184.811 103.506 184.947 103.225V101.924H184.098C182.77 101.924 182.105 102.312 182.105 103.09C182.105 103.43 182.219 103.695 182.445 103.887C182.672 104.078 182.963 104.174 183.318 104.174ZM188.908 105H187.824V96H188.908V105ZM193.279 105.117C192.42 105.117 191.721 104.836 191.182 104.273C190.643 103.707 190.373 102.951 190.373 102.006V101.807C190.373 101.178 190.492 100.617 190.73 100.125C190.973 99.6289 191.309 99.2422 191.738 98.9648C192.172 98.6836 192.641 98.543 193.145 98.543C193.969 98.543 194.609 98.8145 195.066 99.3574C195.523 99.9004 195.752 100.678 195.752 101.689V102.141H191.457C191.473 102.766 191.654 103.271 192.002 103.658C192.354 104.041 192.799 104.232 193.338 104.232C193.721 104.232 194.045 104.154 194.311 103.998C194.576 103.842 194.809 103.635 195.008 103.377L195.67 103.893C195.139 104.709 194.342 105.117 193.279 105.117ZM193.145 99.4336C192.707 99.4336 192.34 99.5938 192.043 99.9141C191.746 100.23 191.562 100.676 191.492 101.25H194.668V101.168C194.637 100.617 194.488 100.191 194.223 99.8906C193.957 99.5859 193.598 99.4336 193.145 99.4336Z" fill="white"/>
<path id="Hold_2" d="M94.5469 172H93.416V168.057H89.1152V172H87.9902V163.469H89.1152V167.137H93.416V163.469H94.5469V172ZM96.0879 168.771C96.0879 168.15 96.209 167.592 96.4512 167.096C96.6973 166.6 97.0371 166.217 97.4707 165.947C97.9082 165.678 98.4062 165.543 98.9648 165.543C99.8281 165.543 100.525 165.842 101.057 166.439C101.592 167.037 101.859 167.832 101.859 168.824V168.9C101.859 169.518 101.74 170.072 101.502 170.564C101.268 171.053 100.93 171.434 100.488 171.707C100.051 171.98 99.5469 172.117 98.9766 172.117C98.1172 172.117 97.4199 171.818 96.8848 171.221C96.3535 170.623 96.0879 169.832 96.0879 168.848V168.771ZM97.1777 168.9C97.1777 169.604 97.3398 170.168 97.6641 170.594C97.9922 171.02 98.4297 171.232 98.9766 171.232C99.5273 171.232 99.9648 171.018 100.289 170.588C100.613 170.154 100.775 169.549 100.775 168.771C100.775 168.076 100.609 167.514 100.277 167.084C99.9492 166.65 99.5117 166.434 98.9648 166.434C98.4297 166.434 97.998 166.646 97.6699 167.072C97.3418 167.498 97.1777 168.107 97.1777 168.9ZM104.396 172H103.312V163H104.396V172ZM105.873 168.777C105.873 167.805 106.104 167.023 106.564 166.434C107.025 165.84 107.629 165.543 108.375 165.543C109.117 165.543 109.705 165.797 110.139 166.305V163H111.223V172H110.227L110.174 171.32C109.74 171.852 109.137 172.117 108.363 172.117C107.629 172.117 107.029 171.816 106.564 171.215C106.104 170.613 105.873 169.828 105.873 168.859V168.777ZM106.957 168.9C106.957 169.619 107.105 170.182 107.402 170.588C107.699 170.994 108.109 171.197 108.633 171.197C109.32 171.197 109.822 170.889 110.139 170.271V167.359C109.814 166.762 109.316 166.463 108.645 166.463C108.113 166.463 107.699 166.668 107.402 167.078C107.105 167.488 106.957 168.096 106.957 168.9Z" fill="white"/>
</svg>
